<svg xmlns="http://www.w3.org/2000/svg" height="48" viewBox="0 -960 960 960" width="48" fill="white"><path d="M152.5-205.5q-12.25 0-20.625-8.425-8.375-8.426-8.375-20.75 0-11.825 8.375-20.075T152.5-263H340q12.25 0 20.625 8.425 8.375 8.426 8.375 20.25 0 12.325-8.375 20.575T340-205.5H152.5Zm0-492.5q-12.25 0-20.625-8.175-8.375-8.176-8.375-20.5 0-12.325 8.375-20.575t20.625-8.25H505q11.75 0 20.125 8.425 8.375 8.426 8.375 20.75 0 12.325-8.375 20.325T505-698H152.5Zm302.325 574q-12.325 0-20.325-8.375t-8-20.625v-163.5q0-12.25 8.175-20.625 8.176-8.375 20.5-8.375 12.325 0 20.575 8.375T484-316.5v53.5h323.5q12.25 0 20.625 8.425 8.375 8.426 8.375 20.25 0 12.325-8.375 20.575T807.5-205.5H484v52.5q0 12.25-8.425 20.625-8.426 8.375-20.75 8.375Zm-115-246.5q-12.325 0-20.325-8.125t-8-20.375v-52.5h-159q-12.25 0-20.625-8.425-8.375-8.426-8.375-20.75 0-11.825 8.375-20.075T152.5-509h159v-55q0-11.75 8.175-20.125 8.176-8.375 20.5-8.375 12.325 0 20.575 8.375T369-564v165q0 12.25-8.425 20.375-8.426 8.125-20.75 8.125ZM455-451.5q-12.25 0-20.375-8.425-8.125-8.426-8.125-20.75 0-11.825 8.125-20.075T455-509h352.5q12.25 0 20.625 8.425 8.375 8.426 8.375 20.25 0 12.325-8.375 20.575T807.5-451.5H455Zm164.825-164q-12.325 0-20.575-8.375T591-644.5V-808q0-12.25 8.425-20.625 8.426-8.375 20.75-8.375 11.825 0 20.075 8.375T648.5-808v52.5h159q12.25 0 20.625 8.425 8.375 8.426 8.375 20.75 0 12.325-8.375 20.325t-20.625 8h-159v53.5q0 12.25-8.425 20.625-8.426 8.375-20.25 8.375Z"/></svg>